<svg xmlns="http://www.w3.org/2000/svg" width="28" height="18" viewBox="0 0 28 18"><path fill="#F1F5F7" d="M-464-532.975H643V1253H-464z"/><path fill="#fff" d="M28 16.006c0 1.1-.893 1.994-1.994 1.994H1.994C.894 18 0 17.107 0 16.006V1.994C0 .894.893 0 1.994 0h24.01C27.108 0 28 .893 28 1.994v14.012z"/><path opacity=".25" fill="#fff" d="M26.006 0H1.994C.894 0 0 .893 0 1.994v14.01C0 17.108.893 18 1.994 18h24.01A1.994 1.994 0 0028 16.006V1.994C28 .894 27.107 0 26.006 0zM27 15.116c0 1.04-.843 1.884-1.884 1.884H2.884A1.884 1.884 0 011 15.116V2.884C1 1.844 1.843 1 2.884 1h22.233C26.157 1 27 1.843 27 2.884v12.232z"/><path d="M23 11.953l-.363.013-.786.002c-.074 0-.073-.027-.087-.097l-.124-.69c-.017-.088-.047-.113-.135-.113-.58.004-1.16.005-1.74 0-.1-.002-.136.036-.165.123-.077.23-.16.458-.248.684l-.1.09c-.5.004-1.002.002-1.504 0l-.033-.013.14-.347 2.14-5.107c.154-.366.358-.488.754-.488h1.122c.09 0 .128.007.148.103.335 1.62.674 3.24 1.012 4.86l.065.9-.097.06v.023zm-2.085-4.23l-.027.037c-.265.73-.53 1.24-.797 2.24h1.283c-.154-1-.306-1.547-.458-2.277zM4 6h.236l2.493.004c.387 0 .676.203.75.585.21 1.09.42 2.182.626 3.273l.04.172.057-.108c.505-1.277 1.01-2.642 1.512-3.92.032-.08.07 0 .156 0h1.5l-.045.115-2.29 5.474c-.052.124-.082.29-.178.353-.09.06-.254.017-.385.018l-1.1.003c-.1.003-.136-.03-.16-.123-.395-1.546-.8-3.09-1.19-4.636-.073-.285-.28-.48-.552-.6A5.828 5.828 0 004 6.167V6zm9.375 5.746l.28-1.308.17.078c.493.23 1.012.34 1.555.286.177-.018.362-.073.52-.157.332-.18.366-.548.073-.786-.168-.137-.37-.233-.555-.348-.277-.17-.574-.318-.827-.518-.902-.713-.61-1.8-.098-2.33.405-.42.654-.655 1.223-.655.9 0 1.802-.047 2.274.112l.072.032-.27 1.255c-.354-.155-.712-.266-1.09-.272a3.028 3.028 0 00-.65.062.724.724 0 00-.313.182c-.17.153-.173.372-.01.528.11.106.24.195.374.274l.842.476c.396.247.722.565.8 1.05.115.7-.097 1.292-.646 1.75-.395.327-.585.44-1.085.51-1.013-.002-1.802 0-2.484-.163l-.155-.06zM13.587 6c-.172 1-.34 1.588-.507 2.373-.245 1.147-.492 2.295-.732 3.443-.025.12-.068.174-.192.17-.414-.008-.83.014-1.243.014h-.143c.062 0 .12-.588.18-.867.355-1.66.71-3.33 1.063-4.99.023-.11.06-.142.176-.14.413.01.828-.003 1.242-.003h.155z" fill="#142688"/></svg>